<?xml version="1.0" encoding="UTF-8" standalone="no"?>
<svg
   xmlns:dc="http://purl.org/dc/elements/1.1/"
   xmlns:cc="http://creativecommons.org/ns#"
   xmlns:rdf="http://www.w3.org/1999/02/22-rdf-syntax-ns#"
   xmlns:svg="http://www.w3.org/2000/svg"
   xmlns="http://www.w3.org/2000/svg"
   viewBox="0 0 1920 1080"
   height="1080"
   width="1920"
   xml:space="preserve"
   id="svg2"
   version="1.1"><metadata
     id="metadata8"><rdf:RDF><cc:Work
         rdf:about=""><dc:format>image/svg+xml</dc:format><dc:type
           rdf:resource="http://purl.org/dc/dcmitype/StillImage" /></cc:Work></rdf:RDF></metadata><defs
     id="defs6"><clipPath
       id="clipPath14"
       clipPathUnits="userSpaceOnUse"><path
         id="path12"
         d="M 0,7.920007 H 1440 V 817.92 H 0 Z" /></clipPath><clipPath
       id="clipPath24"
       clipPathUnits="userSpaceOnUse"><path
         style="clip-rule:evenodd"
         id="path22"
         d="M 0,0 H 6000 V 3375 H 0 Z" /></clipPath><clipPath
       id="clipPath36"
       clipPathUnits="userSpaceOnUse"><path
         style="clip-rule:evenodd"
         id="path34"
         d="M 0,0 H 6000 V 3375 H 0 Z" /></clipPath><clipPath
       id="clipPath48"
       clipPathUnits="userSpaceOnUse"><path
         style="clip-rule:evenodd"
         id="path46"
         d="M 0,0 H 6000 V 3375 H 0 Z" /></clipPath></defs><g
     clip-path="url(#clipPath14)"
     transform="matrix(1.3333333,0,0,-1.3333333,0,1090.56)"
     id="g10"><g
       transform="matrix(0.23999999,0,0,-0.23999999,0,817.91998)"
       id="g16"><g
         id="g18"><g
           clip-path="url(#clipPath24)"
           id="g20"><g
             transform="scale(3.125)"
             id="g26"><path
               id="path28"
               style="fill:#ffffff;fill-opacity:1;fill-rule:nonzero;stroke:none"
               d="M 0,0 H 1920 V 1080 H 0 Z" /></g></g></g><g
         id="g30"><g
           clip-path="url(#clipPath36)"
           id="g32"><g
             transform="scale(3.125)"
             id="g38"><path
               id="path40"
               style="fill:#ffffff;fill-opacity:1;fill-rule:nonzero;stroke:none"
               d="M 0,0 H 1920 V 1080 H 0 Z" /></g></g></g><g
         id="g42"><g
           clip-path="url(#clipPath48)"
           id="g44"><g
             transform="matrix(9.8039103,0,0,9.8050814,0.00332919,-2194.5911)"
             id="g50"><path
               id="path52"
               style="fill:#0d5795;fill-opacity:1;fill-rule:nonzero;stroke:none"
               d="m 121.5,465.76001 c 1.68,-1.04001 3.19,-1.89999 4.63,-2.88001 9.4,-6.32 15.18,-15.04 17.04999,-26.22 1.51,-8.97 -0.04,-17.35 -5.56,-24.76001 -3.83,-5.14001 -8.75999,-9.04998 -14.19999,-12.36999 -6.98,-4.26001 -14.46,-7.45999 -22.1,-10.32001 -2.690003,-1.01001 -5.349999,-2.11999 -8,-3.23001 -2.349999,-0.98001 -4.510002,-2.32001 -6.400002,-4.01001 -1.93,-1.72 -3.389999,-3.72 -3.300003,-6.53 0.06,-1.91 0.830002,-3.36999 2.290001,-4.51999 3.019997,-2.36999 6.550003,-3.08999 10.159996,-2.32998 10.919998,2.29998 21.669998,5.26001 32.020008,9.54998 5.39,2.23999 10.69,4.67002 15.61,7.82999 6.19,3.98001 11.83999,8.59 15.8,14.91 3.17,5.04999 5.16,10.5 5.82001,16.51001 1.53,14.10001 -3.64,25.46 -13.99001,34.63001 -6.38,5.64999 -13.89,9.44 -22.06,11.94 -2.01,0.60999 -3.98999,1.29001 -6.04,1.78 -0.48,0.10999 -0.94999,0.23999 -1.73,0.03 v -0.01 z" /><path
               id="path54"
               style="fill:#8ccded;fill-opacity:1;fill-rule:nonzero;stroke:none"
               d="m 80.510002,326.73001 c -2.400001,1.31 -4.669998,2.79001 -6.779999,4.53 -4.819999,4.01001 -8.629997,8.73999 -11.209999,14.51001 -2.36,5.26999 -3.779999,10.73001 -3.61,16.48999 0.240001,8.23999 3.150001,15.42001 8.970001,21.39001 4.82,4.94001 10.559997,8.57001 16.589996,11.75 6.900002,3.64002 14.129997,6.54001 21.399999,9.34 3.63,1.39999 7,3.22 10.07,5.60001 2.89,2.23999 3.99,5.83999 2.54,8.76999 -1.21,2.45001 -3.43,3.6 -6,4.17999 -3.32,0.75 -6.57,0.11999 -9.75,-0.64002 -9.55,-2.29998 -18.98,-5.04 -28.069996,-8.80999 -7.470002,-3.10001 -14.610001,-6.82999 -21.029999,-11.84 -8.279999,-6.45999 -13.900002,-14.57999 -15.739998,-25.03 -0.779999,-4.42999 -0.700001,-8.89001 0.1,-13.38 0.770001,-4.35001 2.240002,-8.39002 4.349999,-12.22 1.529999,-2.78 3.41,-5.28 5.57,-7.62 6.7,-7.28 15.189998,-11.67001 24.239998,-15.13 2.650001,-1.01001 5.480003,-1.57001 8.230003,-2.34 0.05,0.14999 0.09,0.29999 0.139999,0.45001 h -0.01 z" /><path
               id="path56"
               style="fill:#8ccded;fill-opacity:1;fill-rule:nonzero;stroke:none"
               d="m 137.32001,340.89999 c 1.86,1.28 3.50999,2.42002 5.17999,3.54001 3.56,2.4 6.81,5.17002 9.95,8.09 2.66999,2.48001 5.39999,4.91 8.08999,7.35998 0.74001,0.67002 1.33,1.44001 1.73,2.35999 0.61,1.45001 0.32001,2.26999 -1.11,2.85001 -2.13001,0.85998 -4.15,0.57998 -5.93001,-0.88001 -1.35001,-1.10998 -2.64,-2.31 -3.91,-3.51001 -5.18,-4.85998 -10.56,-9.47 -16.98,-12.64999 -0.67,-0.32999 -1.31,-0.81 -2.31,-0.82999 0.38001,0.79999 1.03,1.20001 1.61,1.57999 4.77001,3.14001 8.87,7.1 13.05001,10.92001 1.83999,1.69 3.55,3.59 5.22999,5.48001 0.47,0.53 0.87,1.10999 1.01,1.82001 0.30999,1.59 -0.44001,2.57001 -2.05001,2.76001 -1.69999,0.20001 -3.22,-0.25 -4.50999,-1.34 -2.14,-1.81 -4.27,-3.64001 -6.35001,-5.51999 -4.35,-3.92999 -9.02,-7.35998 -14.39,-9.78 -2.70999,-1.22 -5.48,-2.17001 -8.52,-1.97 h -0.21 c -0.92,0.02 -2.04,-0.04 -2.3,1 -0.23,0.92002 0.76,1.47 1.42,1.91001 1.4,0.92999 2.9,1.70999 4.35,2.55999 1.33,0.78 2.65,1.57001 3.97,2.38001 2.39,1.47 3.54,3.75 3.97,6.41 0.19999,1.26001 -0.23,2.5 -0.83,3.63001 -0.33001,0.61999 -0.83001,0.73999 -1.36,0.23001 -4.04001,-3.89002 -9.23,-5.47 -14.37001,-7.15 -1.53,-0.5 -3.07,-1.01 -4.59,-1.54998 -2.95,-1.04999 -5.6,-2.56 -7.780001,-4.85999 -1.639999,-1.73001 -3.32,-3.42001 -5.190002,-4.92001 -1.32,-1.06 -2.75,-1.59 -4.410004,-1.73999 -6.779999,-0.60999 -12.610001,1.67001 -17.599998,6.04001 -3.879998,3.39001 -5.989998,7.89001 -6.970002,12.92999 -0.07,0.35998 0.129998,0.85998 -0.559997,1.10998 -0.740002,-1.97 -0.860001,-4.05999 -1.080002,-6.08999 -0.380001,-3.45999 0.259998,-6.85999 1.059997,-10.20001 1.519997,-6.32001 4.879998,-11.60999 9.440003,-16.15 3.68,-3.66 8,-6.35 12.879997,-8.17001 5.449997,-2.03 11.089997,-3.15 16.879999,-2.97 6.87,0.20999 13.64,1.29001 20.33,2.98999 10.15,2.57998 19.39001,6.94 27.61001,13.42999 2.69999,2.14002 5.24,4.45999 7.58,6.98999 0.53,0.57999 0.95,1.22 1.25999,1.92999 0.56,1.28 0.43,2.25 -0.36999,2.88001 -0.82001,0.66 -2.33,0.56 -3.24001,-0.26999 -3.94999,-3.59 -8.11,-6.91 -12.61999,-9.78 -1.67,-1.06 -3.46001,-1.85998 -5.22,-2.73999 -0.44001,-0.22 -0.89,-0.42999 -1.82001,-0.09 l -0.02,-0.02 6e-5,-6e-5 z" /><path
               id="path58"
               style="fill:#0d5795;fill-opacity:1;fill-rule:nonzero;stroke:none"
               d="M 65.720001,451.29001 C 63.91,450.05002 62.18,448.89001 60.470001,447.69 54.68,443.67001 49.57,438.84 44.400002,434.09 c -0.98,-0.9 -1.98,-1.78 -2.96,-2.69001 -0.470001,-0.42999 -0.86,-0.94 -1.09,-1.52999 -0.52,-1.29999 -0.139999,-2.31 1.099999,-3.01001 1.880001,-1.06 3.66,-0.70002 5.349998,0.42999 2.34,1.57001 4.39,3.5 6.459999,5.39001 4.470002,4.09 9.119999,7.91001 14.570004,10.67002 0.75,0.38 1.510002,0.67999 2.349998,0.85998 -1.150001,-1.39001 -2.68,-2.32001 -4.090004,-3.35998 -5,-3.67002 -9.479999,-7.92002 -13.799999,-12.35001 -0.990002,-1.01001 -1.84,-2.13 -2.41,-3.42999 -0.529999,-1.22 -0.240001,-2 0.950001,-2.57001 1.52,-0.72 3.009998,-0.56 4.420002,0.32001 1.5,0.92999 2.790001,2.11999 4.119999,3.26999 4.470001,3.85 8.869999,7.79998 14.079998,10.66 3.830002,2.10999 7.769997,3.95999 12.300003,3.85001 0.870003,-0.02 2.050003,0.32998 2.43,-0.73001 0.419998,-1.17002 -0.870002,-1.49 -1.559997,-1.93 -2.25,-1.42999 -4.550003,-2.79001 -6.879998,-4.08999 -1.5,-0.85001 -2.709999,-2.01001 -3.809997,-3.29001 -1.75,-2.03 -2.089996,-5.20999 -0.879997,-7.29001 0.589996,-1.01001 0.800003,-1.07001 1.779998,-0.34 4.610001,3.47 9.739998,5.76001 15.330002,7.20001 4.340004,1.10999 8.219999,3.20002 11.459999,6.4 1.65,1.63 3.24,3.31 5.02,4.81 2.03,1.73001 4.43,2.22 6.89,2.03 11.94999,-0.94001 20.51999,-9.10001 22.18999,-20.35001 0,-0.06 0.08,-0.12 0.17,-0.26001 0.52,0.29999 0.61999,0.82999 0.72999,1.34 1.86001,8.57998 0.34,16.64001 -4.1,24.1 -6.11,10.28 -15.5,15.81 -27.1,17.70001 -5.71,0.93 -11.449996,0.62 -17.200004,-0.23001 -6.199997,-0.92001 -12.290001,-2.20001 -18.199997,-4.28 -8.779999,-3.07998 -16.739998,-7.57998 -23.73,-13.75 -1.95,-1.72 -4,-3.32 -5.509998,-5.48001 -0.36,-0.51999 -0.740002,-1.04001 -0.84,-1.67999 -0.150002,-1.01999 -0.1,-2.03 0.93,-2.59 0.919998,-0.5 1.91,-0.52999 2.759999,0.20002 1.490001,1.28 2.970001,2.57 4.439998,3.88 4.220001,3.76999 8.899998,6.82999 14.069996,9.13001 0.440003,0.20001 0.870003,0.48999 1.57,0.19 h 0.01 1.5e-5 z" /><path
               id="path60"
               style="fill:#0d5795;fill-opacity:1;fill-rule:nonzero;stroke:none"
               d="m 189.8,441.60999 c -0.97999,0 -1.47,-0.51001 -1.47,-1.53 l 0.89,-43.56 -0.89,-42.79999 c 0,-1.01999 0.49001,-1.53 1.47,-1.53 h 13.67 c 0.98,0 1.47,0.51001 1.47,1.53 l -0.89,42.79999 0.89,43.56 c 0,1.01999 -0.49,1.53 -1.47,1.53 z" /><path
               id="path62"
               style="fill:#0d5795;fill-opacity:1;fill-rule:nonzero;stroke:none"
               d="m 237.45,437.57999 c -6.47,-3.87 -11.51,-9.34 -15.11,-16.38001 -3.60001,-7.04999 -5.4,-15.14999 -5.4,-24.31 0,-9.16 1.76,-17.5 5.27001,-24.52999 3.51001,-7.03 8.47,-12.45002 14.88,-16.26001 6.41001,-3.81 13.85001,-5.72001 22.31999,-5.72001 10.43,0 19.01999,2.48999 25.76999,7.47001 6.75,4.98001 11.29999,12.1 13.64002,21.33999 0.04,0.13001 0.06,0.29999 0.06,0.51001 0,0.42999 -0.13,0.75 -0.38,0.95999 -0.25,0.20999 -0.60001,0.32001 -1.01999,0.32001 h -13.48001 c -0.89001,0 -1.47,-0.45001 -1.72,-1.34 C 280.83,374.06 278.17002,369.82999 274.3,366.95999 c -3.88001,-2.86999 -8.81,-4.31 -14.82001,-4.31 -5.36999,0 -10,1.38001 -13.89,4.15 -3.89999,2.76999 -6.88,6.73999 -8.94,11.91 -2.07001,5.17001 -3.10001,11.29999 -3.10001,18.36002 0,7.06003 1.07001,12.97 3.23,18.07998 2.14999,5.10999 5.24,9.04999 9.25999,11.82001 4.02001,2.76999 8.76,4.15 14.21001,4.15 4.85001,0 9.03,-1 12.51999,-3 3.48999,-2 6.17001,-4.9 8.04999,-8.69001 1.86999,-3.79001 2.86999,-8.29999 3,-13.54001 h -23.82999 c -1.01999,0 -1.53,-0.51001 -1.53,-1.52999 v -8.69001 c 0,-0.47 0.14002,-0.83999 0.42001,-1.11999 0.28,-0.28 0.65,-0.42002 1.12,-0.42002 h 39.48001 c 1.01999,0 1.53,0.68 1.53,2.04001 0,10.31 -1.62,18.98001 -4.85001,26.03 -3.23999,7.04999 -7.94,12.34 -14.11999,15.87 -6.17999,3.53 -13.67002,5.29998 -22.48999,5.29998 -8.26,0 -15.63001,-1.94 -22.10001,-5.80999 v 0.02 l 2e-5,3e-5 z" /><path
               id="path64"
               style="fill:#0d5795;fill-opacity:1;fill-rule:nonzero;stroke:none"
               d="m 314.04001,441.60999 c -0.98001,0 -1.47,-0.51001 -1.47,-1.53 l 0.76999,-43.5 -0.76999,-42.86002 c 0,-1.01999 0.51001,-1.53 1.53,-1.53 H 330.84 c 0.85,0 1.47,0.34 1.85,1.01999 l 40.56,67.39002 -0.57001,-32.19001 v -34.69 c 0,-0.47 0.14002,-0.84 0.42002,-1.11999 0.27999,-0.28 0.64999,-0.42002 1.11999,-0.42002 h 12.32999 c 1.01999,0 1.53,0.51001 1.53,1.53 l -0.82999,42.85999 0.76999,43.5 c 0,1.01999 -0.48999,1.53 -1.47,1.53 h -17.5 c -0.81,0 -1.42999,-0.34 -1.85001,-1.01999 l -39.98999,-66.75 0.70001,34.29998 0.06,31.94001 c 0,0.47 -0.14001,0.83999 -0.42001,1.11999 -0.28,0.28 -0.65,0.42001 -1.12,0.42001 h -12.39001 z" /><path
               id="path66"
               style="fill:#0d5795;fill-opacity:1;fill-rule:nonzero;stroke:none"
               d="m 418.67001,396.51999 0.89002,43.56 c 0,1.01999 -0.48999,1.53 -1.47,1.53 h -13.67002 c -0.98001,0 -1.47,-0.51001 -1.47,-1.53 l 0.9,-43.56 -0.9,-36.39999 c 0,-0.22001 0.02,-0.41001 0.07,-0.57999 2.38,1.51999 5.20001,2.39001 8.23999,2.39001 3.03998,0 5.85001,-0.86999 8.23001,-2.39001 0.05,0.17001 0.07,0.35998 0.07,0.57999 l -0.89002,36.39999 z" /><path
               id="path68"
               style="fill:#0d5795;fill-opacity:1;fill-rule:nonzero;stroke:none"
               d="m 435.98001,441.60999 c -0.98001,0 -1.47,-0.51001 -1.47,-1.53 l 0.89001,-43.18 -0.89001,-43.17999 c 0,-1.01999 0.48999,-1.53 1.47,-1.53 h 55.19 c 0.47,0 0.84,0.14002 1.12,0.42002 0.28,0.27999 0.42001,0.64999 0.42001,1.11999 v 9.01001 c 0,0.47 -0.14001,0.84 -0.42001,1.12 -0.28,0.27999 -0.65,0.42001 -1.12,0.42001 H 451.31 l -0.9,27.85001 h 38.84 c 0.47,0 0.84,0.14001 1.12,0.41 0.27999,0.28 0.42001,0.64999 0.42001,1.11999 v 8.94001 c 0,0.47 -0.14002,0.85 -0.42001,1.14999 -0.28,0.29999 -0.65,0.45001 -1.12,0.45001 h -38.84 l 0.82999,35.9 c 0,1.01999 -0.51001,1.53 -1.53,1.53 h -13.73001 v -0.02 l 3e-5,-6e-5 z" /><path
               id="path70"
               style="fill:#0d5795;fill-opacity:1;fill-rule:nonzero;stroke:none"
               d="m 499.92001,354.03 c -0.17001,-0.29999 -0.25,-0.57001 -0.25,-0.82999 0,-0.29999 0.12,-0.54001 0.35001,-0.73001 0.23001,-0.19 0.56,-0.29001 0.98999,-0.29001 h 14.95001 c 0.94,0 1.54999,0.38001 1.84998,1.15 l 19.98999,43.36999 20.11999,-43.36999 c 0.34003,-0.76999 0.96002,-1.15 1.84998,-1.15 h 13.53998 c 0.89001,0 1.34002,0.34 1.34002,1.01999 0,0.20999 -0.06,0.48999 -0.19,0.82999 l -29.70001,56.58999 0.70001,29.45002 c 0,1.01999 -0.51001,1.53 -1.53003,1.53 h -13.72998 c -1.02002,0 -1.53003,-0.51001 -1.53003,-1.53 l 0.77002,-29.57999 -29.51001,-56.47 -0.01,0.01 z" /><path
               id="path72"
               style="fill:#66627c;fill-opacity:1;fill-rule:nonzero;stroke:none"
               d="m 404.45999,355.56 c -0.57999,-0.29001 -1.17001,-0.56 -1.75,-0.87 -1.5,-0.81 -2.85,-1.82 -4.07001,-3 -0.14999,-0.14999 -0.20001,-0.26001 -0.10998,-0.47 0.29001,-0.69 0.56,-1.39999 0.82999,-2.1 0.26998,-0.68 0.25,-1.35999 -0.03,-2.04001 -0.57999,-1.39002 -1.16001,-2.78 -1.76001,-4.16001 -0.37,-0.85998 -0.42002,-1.70999 -0.14002,-2.60998 0.57999,-1.91001 1.13001,-3.82999 1.69,-5.73999 0.08,-0.26001 0.19001,-0.48999 0.44001,-0.62 0.32,-0.17999 0.64001,-0.16 0.92001,0.06 0.29999,0.22 0.42999,0.54001 0.32999,0.89999 -0.32999,1.18 -0.68,2.35001 -1.01999,3.51999 -0.04,0.14002 -0.15,0.17002 -0.25,0.23001 -0.38001,0.20002 -0.62,0.60001 -0.5,0.97 0.45001,1.34 0.73001,2.74 1.48001,3.98002 0.20999,0.35998 0.45001,0.70001 0.72,1.01001 0.10999,0.13 0.23999,0.23001 0.39001,0.1 0.17002,-0.14001 0.09,-0.29001 -0.03,-0.42999 -0.66001,-0.79999 -1.13001,-1.70001 -1.43,-2.70001 -0.19,-0.63001 -0.41,-1.23999 -0.6,-1.87 -0.13001,-0.42001 0,-0.64001 0.44,-0.72 0.73001,-0.13 1.56,0.25 1.73001,0.97 0.35001,1.47 1.28,2.48999 2.32999,3.47 0.98999,0.93 1.17999,2.10999 0.64001,3.35999 -0.07,0.16 -0.11999,0.20001 -0.31,0.14001 -0.70999,-0.26001 -1.39001,0 -1.70999,0.60999 -0.32,0.63 -0.16,1.39001 0.51001,1.76001 0.76999,0.42999 1.12,0.95001 1.10999,1.86999 -0.02,1.45999 0.13,2.92002 0.20001,4.38001 h -0.07 l 0.02,-3e-5 z" /><path
               id="path74"
               style="fill:#fed551;fill-opacity:1;fill-rule:nonzero;stroke:none"
               d="m 393.25,336.82001 c 0.17001,-0.45001 0.17001,-0.93 0.25,-1.4 0.29999,-1.60998 0.81,-3.14001 1.51001,-4.61999 0.10001,-0.20999 0.20999,-0.29001 0.45001,-0.26999 0.73999,0.06 1.48001,0.09 2.22,0.14001 0.79001,0.05 1.44001,-0.22 2.03,-0.73999 1.15,-1.01001 2.31,-2 3.47,-3 0.62,-0.53 1.34,-0.79 2.16001,-0.80999 1.73001,-0.03 3.47,-0.09 5.20001,-0.14002 0.34,0 0.67999,-0.04 1.01001,-0.04 0.48999,0 0.85998,0.32999 0.89999,0.78 0.04,0.45999 -0.25,0.82999 -0.73999,0.92999 -0.1,0.02 -0.19,0.03 -0.29001,0.04 -1.07998,0.03 -2.16,0.05 -3.23999,0.08 -0.20001,0 -0.35998,-0.02 -0.51999,-0.19 -0.29,-0.31 -0.73999,-0.37 -1.07998,-0.12 -1.04001,0.76001 -2.15,1.42002 -3.04999,2.35999 -0.35999,0.36999 -0.67999,0.76999 -0.95001,1.20999 -0.10001,0.16 -0.19,0.32999 0.01,0.45001 0.19,0.10999 0.29001,-0.03 0.39001,-0.17999 0.54001,-0.84 1.20999,-1.54001 2.03,-2.10999 0.56,-0.39001 1.10999,-0.80999 1.67001,-1.20999 0.35999,-0.26001 0.60999,-0.20001 0.82001,0.19 0.38001,0.71 0.23001,1.57999 -0.47,2.03 -1.06,0.67002 -1.78,1.59 -2.25,2.73001 -0.09,0.21 -0.20001,0.41001 -0.31,0.60999 -0.29998,0.57999 -0.76001,1.01001 -1.35,1.28 -0.53,0.23999 -1.07999,0.23999 -1.64002,0.22 -0.23999,-0.01 -0.17001,-0.17999 -0.17001,-0.31 -0.01,-0.83999 -0.59,-1.42001 -1.39999,-1.39999 -0.54001,0.02 -1.01999,0.38 -1.20002,0.91 -0.10998,0.32001 -0.20001,0.65 -0.29001,0.97 -0.04,0.15 -0.10998,0.23999 -0.26001,0.29999 -1.58999,0.60999 -3.17001,1.23999 -4.75,1.85999 -0.05,0.02 -0.10998,0.02 -0.16,0.03 0,-0.20001 0,-0.39001 0,-0.58999 l -6e-5,0.01 z" /><path
               id="path76"
               style="fill:#fed551;fill-opacity:1;fill-rule:nonzero;stroke:none"
               d="m 425.26001,350.42001 c -1.01999,1.22 -2.14999,2.23999 -3.39999,3.13001 -0.67002,0.48001 -1.37,0.89999 -2.09,1.28 -0.17999,0.1 -0.31,0.08 -0.45999,-0.05 -0.60001,-0.51001 -1.22,-0.98999 -1.81,-1.51001 -0.67001,-0.57999 -1.44,-0.72 -2.29001,-0.64002 -1.23001,0.12 -2.45001,0.21 -3.67999,0.32001 -0.56,0.05 -1.13001,0.13001 -1.69,0.02 -0.43,-0.08 -0.81,-0.25 -1.17002,-0.48999 -1.73001,-1.17999 -3.45999,-2.35998 -5.19,-3.54999 -0.47,-0.32 -0.57999,-0.82 -0.28,-1.23999 0.28,-0.39999 0.79001,-0.48999 1.25,-0.17999 0.95999,0.64999 1.91001,1.31 2.87,1.95001 0.14999,0.10001 0.19,0.22 0.22,0.38001 0.10998,0.51001 0.42999,0.76999 0.95001,0.76999 0.91,0 1.81,0.02 2.72,0 0.85999,-0.02 1.67999,-0.22 2.48001,-0.54001 0.16001,-0.06 0.35999,-0.14002 0.25,-0.37 -0.1,-0.22 -0.28,-0.13 -0.45001,-0.07 -0.85998,0.32998 -1.76001,0.51001 -2.67999,0.51001 -0.73999,0 -1.48999,0 -2.23001,0 -0.44001,0 -0.60999,-0.20002 -0.56,-0.64002 0.09,-0.79999 0.76999,-1.42999 1.60001,-1.36999 1.23001,0.08 2.32998,-0.23999 3.35998,-0.85999 0.16,-0.10001 0.32999,-0.17999 0.48999,-0.26001 1.23001,-0.63 2.34,-0.48001 3.39002,0.42001 0.16,0.14002 0.17999,0.21 0.04,0.38001 -0.33999,0.41 -0.41,0.89001 -0.20001,1.38 0.20999,0.48001 0.59,0.75 1.10999,0.79999 0.38,0.04 0.75,-0.05 1,-0.32001 0.57998,-0.64001 1.22,-0.67001 2.01001,-0.42001 1.35998,0.42999 2.76001,0.73999 4.14001,1.10999 0.09,0.02 0.19,0.06 0.32001,0.1 l -0.02,-0.04 z" /><path
               id="path78"
               style="fill:#d0835c;fill-opacity:1;fill-rule:nonzero;stroke:none"
               d="m 426.76999,329.13 c 0.48999,0.75 0.88,1.51001 1.22,2.29999 0.57999,1.31 0.98999,2.68 1.25,4.09 0.04,0.20999 0,0.31 -0.17999,0.42001 -0.70001,0.43 -1.38001,0.88001 -2.07999,1.31 -0.67999,0.42001 -1.10001,1.01001 -1.28,1.78 -0.35,1.5 -0.70999,2.98999 -1.04999,4.48999 -0.17999,0.79001 -0.57998,1.42999 -1.20999,1.92001 -1.64001,1.26999 -3.28,2.54001 -4.92999,3.79999 -0.57999,0.45001 -1.29001,0.22 -1.44,-0.44 -0.07,-0.34 0.04,-0.64002 0.29999,-0.85001 0.94,-0.75 1.89999,-1.47 2.83999,-2.20999 0.12,-0.09 0.23999,-0.07 0.37,-0.06 0.54001,0.05 0.88,-0.16 1.04001,-0.67999 0.35,-1.12 0.82,-2.20999 1,-3.38 0.09,-0.56 0.11999,-1.13001 0.09,-1.70002 0,-0.17999 -0.04,-0.39001 -0.26999,-0.36999 -0.25,0.01 -0.23999,0.22 -0.23001,0.42001 0.07,0.81 -0.03,1.62 -0.25,2.39002 -0.23001,0.82 -0.51999,1.61999 -0.78,2.42999 -0.14001,0.42001 -0.38,0.51999 -0.78,0.32999 -0.70001,-0.32999 -1.04998,-1.12 -0.83999,-1.87 0.04,-0.14999 0.08,-0.29001 0.14001,-0.44 0.35999,-0.89002 0.35999,-1.79999 0.18,-2.73001 -0.13001,-0.66001 -0.31,-1.32001 -0.18,-2.01001 0.18,-0.95002 0.73001,-1.60999 1.56,-2.07001 0.20001,-0.10999 0.22,0.07 0.28,0.16 0.60001,0.84 1.79999,0.79001 2.29001,-0.09 0.20001,-0.35001 0.26999,-0.75 0.08,-1.10001 -0.36999,-0.69 -0.19,-1.23001 0.23999,-1.84 0.85001,-1.22 1.62,-2.48999 2.42002,-3.73999 0.05,-0.08 0.10998,-0.16 0.19,-0.26001 l 0.01,3e-5 z" /><path
               id="path80"
               style="fill:#e49b73;fill-opacity:1;fill-rule:nonzero;stroke:none"
               d="m 411.48999,320.57001 c 0.64999,-0.03 1.42001,0.07 2.19,0.14001 0.23999,0.02 0.38001,0.10001 0.44001,0.37 0.17001,0.76001 0.38,1.5 0.57,2.25 0.19,0.75 0.62,1.30999 1.28,1.70999 1.31,0.79001 2.60999,1.57999 3.92001,2.36999 0.73002,0.44001 1.23002,1.04999 1.51001,1.85999 0.68,1.92999 1.38001,3.85998 2.07001,5.79001 0.17999,0.5 -0.02,0.98001 -0.48001,1.16 -0.44,0.17001 -0.94,-0.05 -1.11999,-0.53 -0.42002,-1.13 -0.82001,-2.28 -1.23002,-3.42001 -0.04,-0.10999 0,-0.17999 0.05,-0.26999 0.26001,-0.48999 0.17002,-0.91 -0.28,-1.23999 -0.89001,-0.64001 -1.72,-1.34 -2.67001,-1.88001 -0.60001,-0.33999 -1.23999,-0.58999 -1.91,-0.76 -0.17002,-0.04 -0.31,-0.04 -0.35999,0.16 -0.04,0.17001 0.06,0.26999 0.22,0.29999 1.32001,0.29998 2.41001,1.04001 3.47,1.85 0.31,0.23999 0.64002,0.45999 0.95002,0.70001 0.29,0.22001 0.30999,0.48002 0.07,0.75 -0.54998,0.63001 -1.45999,0.74 -2.13,0.24 -0.67002,-0.5 -1.32999,-1 -2.17999,-1.14002 -0.57999,-0.09 -1.16001,-0.17999 -1.73999,-0.26999 -1.23002,-0.20001 -2.13001,-1.08999 -2.37,-2.31 -0.04,-0.19 0.02,-0.26001 0.20999,-0.32 0.73001,-0.22 1.09,-0.82001 0.95999,-1.56 -0.1,-0.62 -0.67999,-1.12 -1.38,-1.04001 -0.73001,0.08 -1.17002,-0.20001 -1.60001,-0.76001 -0.88,-1.17001 -1.83999,-2.26999 -2.76999,-3.39999 -0.16,-0.19001 -0.11999,-0.25 0.10999,-0.29999 1.35,-0.29001 2.70999,-0.47 4.22,-0.45999 l -0.02,0.01 z" /><path
               id="path82"
               style="fill:#fd607f;fill-opacity:1;fill-rule:nonzero;stroke:none"
               d="m 416.79999,337.06 c 0,0.91 -0.42002,1.66 -0.98001,2.32998 -1.10999,1.29999 -2.37,2.44001 -3.60999,3.60999 -0.73001,0.67999 -0.58999,0.64001 -1.26999,0 -1.23999,-1.17999 -2.48999,-2.35001 -3.64001,-3.63001 -0.47,-0.52999 -0.81,-1.11999 -0.94,-1.83999 -0.23999,-1.34 0.76001,-2.70001 2.07,-2.98999 0.98999,-0.22 1.85999,0.04 2.60999,0.70999 0.07,0.07 0.14001,0.14001 0.20999,0.20999 0.31,0.31 0.35998,0.32001 0.64999,0 0.48999,-0.51999 1.07001,-0.85001 1.76999,-0.97 1.57001,-0.26999 3.14002,1.01001 3.14002,2.57001 l -0.01,3e-5 z" /></g></g></g></g><path
       id="path84"
       style="fill:#000000;fill-opacity:0;fill-rule:nonzero;stroke:none"
       d="M 0,-518.8447 H 1440 V 1344.6847 H 0 Z" /></g></svg>